<svg width="17" height="17" viewBox="0 0 17 17" fill="none" xmlns="http://www.w3.org/2000/svg">
<g id="shower 1" clip-path="url(#clip0_54_598)">
<path id="Vector" d="M12.0516 0.684204H8.53039C6.84692 0.684204 5.47735 2.05378 5.47735 3.73725V5.5321C3.44254 5.82882 1.87476 7.58503 1.87476 9.70094C1.87476 10.0381 2.1481 10.3115 2.48536 10.3115H9.69055C10.0278 10.3115 10.3012 10.0381 10.3012 9.70094C10.3012 7.58503 8.73337 5.82882 6.69856 5.5321V3.73725C6.69856 2.72712 7.52026 1.90542 8.53039 1.90542H12.0515C13.0617 1.90542 13.8834 2.72712 13.8834 3.73725V15.7052C13.8834 16.0424 14.1567 16.3158 14.494 16.3158C14.8312 16.3158 15.1046 16.0424 15.1046 15.7052V3.73725C15.1047 2.05378 13.735 0.684204 12.0516 0.684204ZM9.01733 9.09021H3.15858C3.44123 7.7322 4.6473 6.70884 6.08795 6.70884C7.52861 6.70884 8.73468 7.7322 9.01733 9.09021ZM6.69856 11.8024V12.7183C6.69856 13.0556 6.42522 13.3289 6.08795 13.3289C5.75069 13.3289 5.47735 13.0556 5.47735 12.7183V11.8024C5.47735 11.4651 5.75069 11.1918 6.08795 11.1918C6.42522 11.1918 6.69856 11.4651 6.69856 11.8024ZM6.69129 14.7893V15.7052C6.69129 16.0424 6.41795 16.3158 6.08068 16.3158C5.74353 16.3158 5.47007 16.0424 5.47007 15.7052V14.7893C5.47007 14.452 5.74353 14.1787 6.08068 14.1787C6.41795 14.1787 6.69129 14.452 6.69129 14.7893ZM4.30049 11.8024V12.7183C4.30049 13.0556 4.02703 13.3289 3.68989 13.3289C3.35262 13.3289 3.07928 13.0556 3.07928 12.7183V11.8024C3.07928 11.4651 3.35262 11.1918 3.68989 11.1918C4.02703 11.1918 4.30049 11.4651 4.30049 11.8024ZM4.29322 14.7893V15.7052C4.29322 16.0424 4.01988 16.3158 3.68261 16.3158C3.34534 16.3158 3.072 16.0424 3.072 15.7052V14.7893C3.072 14.452 3.34534 14.1787 3.68261 14.1787C4.01988 14.1787 4.29322 14.452 4.29322 14.7893ZM9.08948 11.8024V12.7183C9.08948 13.0556 8.81602 13.3289 8.47887 13.3289C8.1416 13.3289 7.86826 13.0556 7.86826 12.7183V11.8024C7.86826 11.4651 8.1416 11.1918 8.47887 11.1918C8.81602 11.1918 9.08948 11.4651 9.08948 11.8024ZM9.0822 14.7893V15.7052C9.0822 16.0424 8.80874 16.3158 8.47159 16.3158C8.13433 16.3158 7.86099 16.0424 7.86099 15.7052V14.7893C7.86099 14.452 8.13433 14.1787 8.47159 14.1787C8.80874 14.1787 9.0822 14.452 9.0822 14.7893Z" fill="#4E4E69"/>
</g>
<defs>
<clipPath id="clip0_54_598">
<rect width="15.6316" height="15.6316" fill="white" transform="translate(0.684082 0.684204)"/>
</clipPath>
</defs>
</svg>
