<svg width="17" height="17" viewBox="0 0 17 17" fill="none" xmlns="http://www.w3.org/2000/svg">
<g id="bed 1" clip-path="url(#clip0_54_604)">
<g id="Group">
<g id="Group_2">
<path id="Vector" d="M14.4838 8.40833H14.4533V4.13407C14.4533 3.124 13.6315 2.30225 12.6215 2.30225H4.34773C3.33766 2.30225 2.51591 3.124 2.51591 4.13407V8.40833C1.50584 8.40833 0.684082 9.23009 0.684082 10.2402V13.5985H1.9053V14.6976H3.12652V13.5985H13.8732V14.6976H15.0944V13.5985H16.3157V10.2402C16.3157 9.23009 15.4939 8.40833 14.4838 8.40833ZM3.73712 4.13407C3.73712 3.79738 4.01104 3.52346 4.34773 3.52346H12.6215C12.9582 3.52346 13.2321 3.79738 13.2321 4.13407V8.40833H12.0719V7.49242C12.0719 6.48235 11.2502 5.66059 10.2401 5.66059H6.69858C5.68851 5.66059 4.86675 6.48235 4.86675 7.49242V8.40833H3.73712V4.13407ZM10.8507 7.49242V8.40833H6.08797V7.49242C6.08797 7.15573 6.36189 6.88181 6.69858 6.88181H10.2401C10.5768 6.88181 10.8507 7.15573 10.8507 7.49242ZM15.0944 12.3773H1.9053V10.2402C1.9053 9.90347 2.17922 9.62955 2.51591 9.62955H14.4838C14.8205 9.62955 15.0944 9.90347 15.0944 10.2402V12.3773Z" fill="#4E4E69"/>
</g>
</g>
</g>
<defs>
<clipPath id="clip0_54_604">
<rect width="15.6316" height="15.6316" fill="white" transform="translate(0.684082 0.684204)"/>
</clipPath>
</defs>
</svg>
