<svg width="20" height="20" viewBox="0 0 20 20" fill="none" xmlns="http://www.w3.org/2000/svg">
<g id="Frame" clip-path="url(#clip0_54_392)">
<path id="Vector" d="M9.99959 18.3334C5.39709 18.3334 1.66626 14.6026 1.66626 10.0001C1.66626 5.39758 5.39709 1.66675 9.99959 1.66675C14.6021 1.66675 18.3329 5.39758 18.3329 10.0001C18.3329 14.6026 14.6021 18.3334 9.99959 18.3334ZM9.99959 16.6667C11.7677 16.6667 13.4634 15.9644 14.7136 14.7141C15.9639 13.4639 16.6663 11.7682 16.6663 10.0001C16.6663 8.23197 15.9639 6.53628 14.7136 5.28604C13.4634 4.03579 11.7677 3.33341 9.99959 3.33341C8.23148 3.33341 6.53579 4.03579 5.28555 5.28604C4.03531 6.53628 3.33293 8.23197 3.33293 10.0001C3.33293 11.7682 4.03531 13.4639 5.28555 14.7141C6.53579 15.9644 8.23148 16.6667 9.99959 16.6667ZM7.08293 11.6667H11.6663C11.7768 11.6667 11.8827 11.6228 11.9609 11.5447C12.039 11.4666 12.0829 11.3606 12.0829 11.2501C12.0829 11.1396 12.039 11.0336 11.9609 10.9555C11.8827 10.8773 11.7768 10.8334 11.6663 10.8334H8.33293C7.78039 10.8334 7.25049 10.6139 6.85979 10.2232C6.46909 9.83252 6.24959 9.30262 6.24959 8.75008C6.24959 8.19755 6.46909 7.66764 6.85979 7.27694C7.25049 6.88624 7.78039 6.66675 8.33293 6.66675H9.16626V5.00008H10.8329V6.66675H12.9163V8.33341H8.33293C8.22242 8.33341 8.11644 8.37731 8.0383 8.45545C7.96016 8.53359 7.91626 8.63957 7.91626 8.75008C7.91626 8.86059 7.96016 8.96657 8.0383 9.04471C8.11644 9.12285 8.22242 9.16675 8.33293 9.16675H11.6663C12.2188 9.16675 12.7487 9.38624 13.1394 9.77694C13.5301 10.1676 13.7496 10.6975 13.7496 11.2501C13.7496 11.8026 13.5301 12.3325 13.1394 12.7232C12.7487 13.1139 12.2188 13.3334 11.6663 13.3334H10.8329V15.0001H9.16626V13.3334H7.08293V11.6667Z" fill="#4E4E69"/>
</g>
<defs>
<clipPath id="clip0_54_392">
<rect width="20" height="20" fill="white"/>
</clipPath>
</defs>
</svg>
