<svg width="43" height="36" viewBox="0 0 43 36" fill="none" xmlns="http://www.w3.org/2000/svg">
<path d="M0.46167 0.887964C0.46167 0.397555 0.859225 0 1.34963 0H18.0001V6.49665C18.0001 6.98706 17.6026 7.38461 17.1122 7.38461H0.46167V0.887964Z" fill="#DAE7E6"/>
<path d="M18 35.112C18 35.6024 17.6024 36 17.112 36L0.46155 36L0.46155 29.5034C0.46155 29.0129 0.859105 28.6154 1.34951 28.6154L18 28.6154L18 35.112Z" fill="#DAE7E6"/>
<path d="M42.923 35.112C42.923 35.6024 42.5254 36 42.035 36L25.3845 36L25.3845 29.5034C25.3845 29.0129 25.7821 28.6154 26.2725 28.6154L42.923 28.6154L42.923 35.112Z" fill="#DAE7E6"/>
<path d="M25.3846 0.887964C25.3846 0.397555 25.7822 0 26.2726 0H42.9231V6.49665C42.9231 6.98706 42.5255 7.38461 42.0351 7.38461H25.3846V0.887964Z" fill="#DAE7E6"/>
<path d="M7.38464 0L7.38464 17.5385L3.2612e-05 17.5384L3.33398e-05 0.887964C3.33612e-05 0.397554 0.397589 -3.05414e-07 0.887998 -2.83977e-07L7.38464 0Z" fill="#DAE7E6"/>
<path d="M42.923 16.1538L42.923 33.6923L35.5384 33.6923L35.5384 17.0418C35.5384 16.5514 35.9359 16.1538 36.4263 16.1538L42.923 16.1538Z" fill="#DAE7E6"/>
<path d="M24.4967 6.9231C24.9871 6.9231 25.3846 7.32065 25.3846 7.81106L25.3846 13.4197C25.3846 13.9102 24.9871 14.3077 24.4967 14.3077L18.888 14.3077C18.3976 14.3077 18 13.9101 18 13.4197L18 7.81106C18 7.32065 18.3976 6.9231 18.888 6.9231L24.4967 6.9231Z" fill="#DAE7E6"/>
<path d="M24.4967 21.2307C24.9871 21.2307 25.3846 21.6283 25.3846 22.1187L25.3846 27.7274C25.3846 28.2178 24.9871 28.6153 24.4967 28.6153L18.888 28.6153C18.3976 28.6153 18 28.2178 18 27.7274L18 22.1187C18 21.6283 18.3976 21.2307 18.888 21.2307L24.4967 21.2307Z" fill="#DAE7E6"/>
<path d="M17.5385 21.2307L0.887966 21.2307C0.397556 21.2307 1.9421e-06 20.8332 1.98498e-06 20.3427L2.55293e-06 13.8461L16.6505 13.8461C17.1409 13.8461 17.5385 14.2437 17.5385 14.7341L17.5385 21.2307Z" fill="#DAE7E6"/>
<path d="M42.923 21.2307L26.2725 21.2307C25.7821 21.2307 25.3845 20.8332 25.3845 20.3427L25.3845 13.8461L42.035 13.8461C42.5254 13.8461 42.923 14.2437 42.923 14.7341L42.923 21.2307Z" fill="#DAE7E6"/>
</svg>
