<svg width="20" height="20" viewBox="0 0 20 20" fill="none" xmlns="http://www.w3.org/2000/svg">
<g clip-path="url(#clip0_54_527)">
<path d="M7.23836 3.33336L9.41086 1.16086C9.56713 1.00463 9.77905 0.91687 10 0.91687C10.221 0.91687 10.4329 1.00463 10.5892 1.16086L12.7617 3.33336H15.8334C16.0544 3.33336 16.2663 3.42116 16.4226 3.57744C16.5789 3.73372 16.6667 3.94568 16.6667 4.16669V7.23836L18.8392 9.41086C18.9954 9.56713 19.0832 9.77905 19.0832 10C19.0832 10.221 18.9954 10.4329 18.8392 10.5892L16.6667 12.7617V15.8334C16.6667 16.0544 16.5789 16.2663 16.4226 16.4226C16.2663 16.5789 16.0544 16.6667 15.8334 16.6667H12.7617L10.5892 18.8392C10.4329 18.9954 10.221 19.0832 10 19.0832C9.77905 19.0832 9.56713 18.9954 9.41086 18.8392L7.23836 16.6667H4.16669C3.94568 16.6667 3.73372 16.5789 3.57744 16.4226C3.42116 16.2663 3.33336 16.0544 3.33336 15.8334V12.7617L1.16086 10.5892C1.00463 10.4329 0.91687 10.221 0.91687 10C0.91687 9.77905 1.00463 9.56713 1.16086 9.41086L3.33336 7.23836V4.16669C3.33336 3.94568 3.42116 3.73372 3.57744 3.57744C3.73372 3.42116 3.94568 3.33336 4.16669 3.33336H7.23836ZM5.00003 5.00003V7.92919L2.92919 10L5.00003 12.0709V15H7.92919L10 17.0709L12.0709 15H15V12.0709L17.0709 10L15 7.92919V5.00003H12.0709L10 2.92919L7.92919 5.00003H5.00003ZM10 13.3334C9.11597 13.3334 8.26812 12.9822 7.643 12.357C7.01788 11.7319 6.66669 10.8841 6.66669 10C6.66669 9.11597 7.01788 8.26812 7.643 7.643C8.26812 7.01788 9.11597 6.66669 10 6.66669C10.8841 6.66669 11.7319 7.01788 12.357 7.643C12.9822 8.26812 13.3334 9.11597 13.3334 10C13.3334 10.8841 12.9822 11.7319 12.357 12.357C11.7319 12.9822 10.8841 13.3334 10 13.3334ZM10 11.6667C10.4421 11.6667 10.866 11.4911 11.1785 11.1785C11.4911 10.866 11.6667 10.4421 11.6667 10C11.6667 9.558 11.4911 9.13407 11.1785 8.82151C10.866 8.50895 10.4421 8.33336 10 8.33336C9.558 8.33336 9.13407 8.50895 8.82151 8.82151C8.50895 9.13407 8.33336 9.558 8.33336 10C8.33336 10.4421 8.50895 10.866 8.82151 11.1785C9.13407 11.4911 9.558 11.6667 10 11.6667Z" fill="white"/>
</g>
<defs>
<clipPath id="clip0_54_527">
<rect width="20" height="20" fill="white"/>
</clipPath>
</defs>
</svg>
