<svg width="20" height="20" viewBox="0 0 20 20" fill="none" xmlns="http://www.w3.org/2000/svg">
<g clip-path="url(#clip0_54_519)">
<path d="M4.80246 14.1667H16.6666V4.16667H3.33329V15.3208L4.80246 14.1667ZM5.37913 15.8333L1.66663 18.75V3.33333C1.66663 3.11232 1.75442 2.90036 1.9107 2.74408C2.06698 2.5878 2.27895 2.5 2.49996 2.5H17.5C17.721 2.5 17.9329 2.5878 18.0892 2.74408C18.2455 2.90036 18.3333 3.11232 18.3333 3.33333V15C18.3333 15.221 18.2455 15.433 18.0892 15.5893C17.9329 15.7455 17.721 15.8333 17.5 15.8333H5.37913ZM9.16663 11.6667H10.8333V13.3333H9.16663V11.6667ZM7.13913 7.34417C7.2474 6.80233 7.50731 6.30237 7.88862 5.90248C8.26994 5.50259 8.75697 5.2192 9.29305 5.0853C9.82913 4.95139 10.3922 4.97248 10.9168 5.1461C11.4413 5.31971 11.9058 5.63873 12.2562 6.06602C12.6065 6.4933 12.8283 7.01129 12.8958 7.55971C12.9632 8.10813 12.8735 8.66443 12.6372 9.16387C12.4008 9.66332 12.0274 10.0854 11.5606 10.3809C11.0937 10.6765 10.5525 10.8334 9.99996 10.8333H9.16663V9.16667H9.99996C10.2367 9.16665 10.4686 9.09941 10.6686 8.97277C10.8686 8.84614 11.0285 8.6653 11.1298 8.45132C11.231 8.23734 11.2694 7.999 11.2405 7.76404C11.2116 7.52908 11.1166 7.30715 10.9665 7.12409C10.8164 6.94103 10.6174 6.80436 10.3926 6.72997C10.1679 6.65559 9.92666 6.64656 9.69698 6.70392C9.4673 6.76129 9.25864 6.88269 9.09526 7.05401C8.93189 7.22533 8.82053 7.43953 8.77413 7.67167L7.13913 7.34417Z" fill="white"/>
</g>
<defs>
<clipPath id="clip0_54_519">
<rect width="20" height="20" fill="white"/>
</clipPath>
</defs>
</svg>
